<svg width="313" height="40" viewBox="0 0 313 40" fill="none" xmlns="http://www.w3.org/2000/svg">
<path d="M20.216 1.6C20.376 1.76 20.584 3.584 20.84 7.072C21.096 10.56 21.224 14.08 21.224 17.632C21.224 21.216 21.048 24.4 20.696 27.184C20.344 29.936 19.784 31.888 19.016 33.04C18.12 34.352 16.984 35.344 15.608 36.016C14.232 36.688 12.76 37.024 11.192 37.024C9.368 37.024 7.624 36.576 5.96 35.68C4.328 34.816 3 33.552 1.976 31.888C0.952 30.192 0.44 28.224 0.44 25.984C0.44 25.216 0.472 24.624 0.536 24.208C0.568 23.92 1.096 23.664 2.12 23.44C3.176 23.216 4.216 23.104 5.24 23.104C6.232 23.104 6.808 23.232 6.968 23.488C7.128 23.744 7.24 24.352 7.304 25.312C7.4 26.528 7.608 27.488 7.928 28.192C8.28 28.864 9.016 29.232 10.136 29.296C11.064 29.264 11.752 29.088 12.2 28.768C12.68 28.416 12.984 27.968 13.112 27.424C13.272 26.88 13.384 26.144 13.448 25.216L13.352 19.984C13.224 14.928 13.16 10.672 13.16 7.216C13.16 3.504 13.272 1.6 13.496 1.504C13.656 1.44 14.168 1.376 15.032 1.312C15.928 1.216 16.776 1.168 17.576 1.168C19.048 1.168 19.928 1.312 20.216 1.6ZM41.903 1.072C42.287 1.328 43.247 4.128 44.783 9.472C46.319 14.816 47.775 20.288 49.151 25.888C50.527 31.488 51.151 34.576 51.023 35.152C50.991 35.344 50.927 35.488 50.831 35.584C50.767 35.68 50.543 35.776 50.159 35.872C49.807 36 49.183 36.128 48.287 36.256C47.807 36.384 47.343 36.448 46.895 36.448C46.223 36.448 45.695 36.32 45.311 36.064C44.959 35.808 44.735 35.584 44.639 35.392L41.519 23.2C41.135 23.232 40.527 23.264 39.695 23.296C38.863 23.328 37.967 23.344 37.007 23.344C36.207 23.344 35.679 23.328 35.423 23.296C34.751 25.728 34.031 28.208 33.263 30.736C32.495 33.232 31.951 35.024 31.631 36.112C31.567 36.304 31.231 36.48 30.623 36.64C30.015 36.8 29.343 36.88 28.607 36.88C27.615 36.88 26.751 36.72 26.015 36.4C25.311 36.112 24.911 35.648 24.815 35.008C24.751 34.432 25.519 31.36 27.119 25.792C28.719 20.224 30.383 14.768 32.111 9.424C33.839 4.08 34.879 1.296 35.231 1.072C35.455 0.911998 36.351 0.831998 37.919 0.831998C38.815 0.831998 39.679 0.863998 40.511 0.927999C41.375 0.959999 41.839 1.008 41.903 1.072ZM38.543 8.608C38.191 9.696 37.615 11.888 36.815 15.184L36.383 16.96L40.655 17.008C40.463 16.368 40.287 15.744 40.127 15.136C39.999 14.496 39.871 13.92 39.743 13.408C39.295 11.392 38.895 9.792 38.543 8.608ZM75.1404 3.184C75.2364 4.144 75.2844 4.784 75.2844 5.104C75.2844 6.224 75.1244 7.376 74.8044 8.56C74.6444 9.072 74.0364 10.16 72.9804 11.824C71.9244 13.488 70.3084 15.952 68.1324 19.216C67.5564 20.08 66.4684 21.728 64.8684 24.16C63.3004 26.56 62.0044 28.592 60.9804 30.256C61.5564 30.288 62.3404 30.304 63.3324 30.304C64.3244 30.304 65.3164 30.32 66.3084 30.352C67.2684 30.352 68.6604 30.368 70.4844 30.4C72.3404 30.432 73.5404 30.464 74.0844 30.496C74.4364 30.528 74.7244 30.944 74.9484 31.744C75.1724 32.512 75.2844 33.408 75.2844 34.432C75.2844 35.296 75.2044 36.032 75.0444 36.64C74.8844 37.28 74.6444 37.664 74.3244 37.792C74.1004 37.888 72.3884 37.968 69.1884 38.032C66.0204 38.096 62.8684 38.128 59.7324 38.128C57.4924 38.128 56.0364 38.112 55.3644 38.08C54.9804 38.08 54.6604 37.952 54.4044 37.696C54.1484 37.44 54.0044 37.12 53.9724 36.736L53.9244 35.2C53.9244 32.832 54.1324 31.104 54.5484 30.016C54.9324 28.992 57.9244 23.728 63.5244 14.224L66.7884 8.704C65.5404 8.672 63.5244 8.688 60.7404 8.752C59.8444 8.784 58.6604 8.8 57.1884 8.8C56.2924 8.8 55.7324 8.784 55.5084 8.752C55.2524 8.72 55.0604 8.496 54.9324 8.08C54.8044 7.664 54.7404 7.12 54.7404 6.448C54.7404 5.712 54.8044 4.976 54.9324 4.24C55.0604 3.472 55.2204 2.896 55.4124 2.512C55.6364 2.032 57.9724 1.792 62.4204 1.792C65.1724 1.792 69.0124 1.904 73.9404 2.128C74.2604 2.16 74.5164 2.272 74.7084 2.464C74.9324 2.656 75.0764 2.896 75.1404 3.184ZM99.3748 3.184C99.4708 4.144 99.5188 4.784 99.5188 5.104C99.5188 6.224 99.3588 7.376 99.0388 8.56C98.8788 9.072 98.2708 10.16 97.2148 11.824C96.1588 13.488 94.5428 15.952 92.3668 19.216C91.7908 20.08 90.7028 21.728 89.1028 24.16C87.5348 26.56 86.2388 28.592 85.2148 30.256C85.7908 30.288 86.5748 30.304 87.5668 30.304C88.5588 30.304 89.5508 30.32 90.5428 30.352C91.5028 30.352 92.8948 30.368 94.7188 30.4C96.5748 30.432 97.7748 30.464 98.3188 30.496C98.6708 30.528 98.9588 30.944 99.1828 31.744C99.4068 32.512 99.5188 33.408 99.5188 34.432C99.5188 35.296 99.4388 36.032 99.2788 36.64C99.1188 37.28 98.8788 37.664 98.5588 37.792C98.3348 37.888 96.6228 37.968 93.4228 38.032C90.2548 38.096 87.1028 38.128 83.9668 38.128C81.7268 38.128 80.2708 38.112 79.5988 38.08C79.2148 38.08 78.8948 37.952 78.6388 37.696C78.3828 37.44 78.2388 37.12 78.2068 36.736L78.1588 35.2C78.1588 32.832 78.3668 31.104 78.7828 30.016C79.1668 28.992 82.1588 23.728 87.7588 14.224L91.0228 8.704C89.7748 8.672 87.7588 8.688 84.9748 8.752C84.0788 8.784 82.8948 8.8 81.4228 8.8C80.5268 8.8 79.9668 8.784 79.7428 8.752C79.4868 8.72 79.2948 8.496 79.1668 8.08C79.0388 7.664 78.9748 7.12 78.9748 6.448C78.9748 5.712 79.0388 4.976 79.1668 4.24C79.2948 3.472 79.4548 2.896 79.6468 2.512C79.8708 2.032 82.2068 1.792 86.6548 1.792C89.4068 1.792 93.2468 1.904 98.1748 2.128C98.4948 2.16 98.7508 2.272 98.9428 2.464C99.1668 2.656 99.3108 2.896 99.3748 3.184ZM126.489 4.96C126.457 5.12 125.017 7.824 122.169 13.072C119.353 18.288 117.561 21.52 116.793 22.768L116.697 27.904C116.633 32.448 116.569 35.888 116.505 38.224C116.505 38.576 116.233 38.832 115.689 38.992C115.145 39.152 114.473 39.232 113.673 39.232C112.649 39.232 111.689 39.104 110.793 38.848C109.929 38.592 109.481 38.288 109.449 37.936C109.385 37.808 109.353 36.784 109.353 34.864C109.353 32.816 109.385 30.544 109.449 28.048C109.545 25.52 109.657 23.488 109.785 21.952C104.281 10.656 101.673 4.96 101.961 4.864C101.865 4.608 102.089 4.256 102.633 3.808C103.209 3.328 103.897 2.912 104.697 2.56C105.529 2.176 106.249 1.984 106.857 1.984C107.337 1.984 107.673 2.128 107.865 2.416C108.025 2.416 108.857 4.112 110.361 7.504C111.865 10.864 113.017 13.616 113.817 15.76C114.041 15.184 115.145 12.912 117.129 8.944C119.145 4.976 120.329 2.704 120.681 2.128C120.809 1.904 121.081 1.792 121.497 1.792C122.073 1.792 122.777 1.968 123.609 2.32C124.473 2.672 125.193 3.104 125.769 3.616C126.345 4.096 126.585 4.544 126.489 4.96ZM162.271 34.144C162.431 34.432 162.175 34.88 161.503 35.488C160.831 36.096 159.999 36.64 159.007 37.12C158.047 37.632 157.279 37.888 156.703 37.888C156.415 37.888 156.191 37.792 156.031 37.6C155.135 36.352 154.287 35.088 153.487 33.808C152.719 32.496 152.271 31.728 152.143 31.504C151.215 29.904 150.383 28.56 149.647 27.472C149.519 27.28 149.343 27.136 149.119 27.04C148.927 26.944 148.719 26.928 148.495 26.992H148.447C148.191 27.056 147.983 27.184 147.823 27.376C147.663 27.568 147.599 27.792 147.631 28.048L147.823 30.64C148.047 33.104 148.143 35.168 148.111 36.832C148.079 37.28 147.615 37.664 146.719 37.984C145.823 38.304 144.927 38.464 144.031 38.464C142.911 38.464 142.351 38.208 142.351 37.696C141.807 32.256 141.311 26.56 140.863 20.608C140.415 14.624 140.191 10.064 140.191 6.928C140.191 4.56 140.335 3.312 140.623 3.184C141.167 2.864 142.095 2.576 143.407 2.32C144.751 2.064 146.191 1.936 147.727 1.936C150.031 1.936 152.095 2.272 153.919 2.944C155.775 3.616 157.087 4.72 157.855 6.256C159.231 8.752 159.919 11.232 159.919 13.696C159.919 15.648 159.567 17.344 158.863 18.784C158.159 20.224 157.279 21.648 156.223 23.056C155.967 23.376 155.759 23.664 155.599 23.92C155.471 24.144 155.423 24.304 155.455 24.4C155.359 24.272 156.031 25.2 157.471 27.184C159.007 29.104 160.607 31.424 162.271 34.144ZM153.871 14.032C153.871 12.336 153.311 10.992 152.191 10C151.103 9.008 149.407 8.288 147.103 7.84H147.007C146.879 7.84 146.751 7.888 146.623 7.984C146.527 8.08 146.479 8.208 146.479 8.368C146.511 10.224 146.639 12.32 146.863 14.656C147.055 17.472 147.167 19.552 147.199 20.896C147.199 21.248 147.391 21.424 147.775 21.424C148.895 21.296 149.919 20.864 150.847 20.128C151.775 19.392 152.511 18.48 153.055 17.392C153.599 16.304 153.871 15.184 153.871 14.032ZM181.862 33.04C182.118 33.808 182.246 34.656 182.246 35.584C182.246 36.288 182.182 36.912 182.054 37.456C181.926 38.032 181.814 38.336 181.718 38.368C181.494 38.464 180.47 38.544 178.646 38.608C176.822 38.704 174.902 38.752 172.886 38.752C169.494 38.752 167.302 38.64 166.31 38.416C166.022 38.384 165.798 37.04 165.638 34.384C165.51 31.76 165.446 28.512 165.446 24.64C165.446 19.168 165.606 14.272 165.926 9.952C166.246 5.6 166.71 3.376 167.318 3.28C168.214 3.12 169.782 3.04 172.022 3.04C173.622 3.04 175.222 3.088 176.822 3.184C178.454 3.248 179.558 3.328 180.134 3.424C180.614 3.392 180.966 3.664 181.19 4.24C181.446 4.816 181.574 5.536 181.574 6.4C181.574 7.36 181.43 8.24 181.142 9.04C180.854 9.808 180.47 10.208 179.99 10.24C179.702 10.272 178.918 10.288 177.638 10.288L172.406 10.24C172.342 10.624 172.31 11.408 172.31 12.592L172.358 15.856L172.406 17.488C173.174 17.488 174.022 17.52 174.95 17.584C175.91 17.616 176.742 17.664 177.446 17.728C178.022 17.792 178.454 17.824 178.742 17.824C179.446 17.888 179.942 17.952 180.23 18.016C180.678 18.144 180.902 18.8 180.902 19.984C180.902 20.72 180.79 21.76 180.566 23.104C180.502 23.424 179.414 23.584 177.302 23.584C176.342 23.584 175.03 23.552 173.366 23.488L172.31 23.44L172.166 27.952C172.102 30 172.07 31.472 172.07 32.368C173.606 32.464 174.982 32.512 176.198 32.512L179.51 32.464C180.278 32.464 180.854 32.512 181.238 32.608C181.622 32.672 181.83 32.816 181.862 33.04ZM205.511 27.04C205.831 26.848 206.327 27.056 206.999 27.664C207.671 28.24 208.279 28.976 208.823 29.872C209.367 30.736 209.639 31.456 209.639 32.032C209.639 32.352 209.543 32.592 209.351 32.752C205.223 35.728 201.399 37.216 197.879 37.216C195.511 37.216 193.431 36.544 191.639 35.2C189.879 33.856 188.487 31.968 187.463 29.536C186.471 27.104 185.927 24.288 185.831 21.088C186.023 16.096 186.951 11.376 188.615 6.928C190.311 2.448 193.751 0.319998 198.935 0.543999C199.159 0.479998 199.815 0.559998 200.903 0.783998C202.023 1.008 203.159 1.424 204.311 2.032C205.463 2.608 206.343 3.392 206.951 4.384C207.111 4.544 207.127 4.736 206.999 4.96C205.495 7.808 204.439 9.232 203.831 9.232C203.639 9.232 203.399 9.136 203.111 8.944C202.823 8.752 202.535 8.544 202.247 8.32C201.511 7.776 200.903 7.376 200.423 7.12C199.943 6.832 199.399 6.688 198.791 6.688C198.311 6.688 197.847 6.8 197.399 7.024C196.151 7.504 195.175 8.544 194.471 10.144C193.767 11.744 193.287 13.472 193.031 15.328C192.807 17.152 192.711 18.736 192.743 20.08C192.999 26.256 195.047 29.344 198.887 29.344C200.839 29.344 203.047 28.576 205.511 27.04ZM227.213 2.08C227.181 2.08 227.005 2.064 226.685 2.032C226.365 2 225.901 1.984 225.293 1.984C222.413 1.984 220.205 2.544 218.669 3.664C216.525 5.424 214.797 8 213.485 11.392C212.205 14.752 211.565 18.224 211.565 21.808C211.565 25.488 212.269 28.736 213.677 31.552C215.117 34.368 217.245 36.288 220.061 37.312C221.213 37.728 222.349 37.936 223.469 37.936C225.517 37.936 227.373 37.264 229.037 35.92C230.701 34.608 232.045 32.928 233.069 30.88C234.125 28.832 234.813 26.752 235.133 24.64C235.549 21.728 235.757 19.184 235.757 17.008C235.757 8.624 232.909 3.648 227.213 2.08ZM219.005 17.344C219.421 15.52 220.141 13.552 221.165 11.44C222.189 9.328 223.485 8.272 225.053 8.272C225.277 8.272 225.453 8.288 225.581 8.32C226.317 8.384 226.909 8.688 227.357 9.232C227.805 9.776 228.125 10.352 228.317 10.96C228.541 11.568 228.653 11.936 228.653 12.064C229.069 13.44 229.277 15.008 229.277 16.768C229.277 16.96 229.229 17.776 229.133 19.216C229.005 20.24 228.669 21.664 228.125 23.488C227.613 25.28 226.893 26.896 225.965 28.336C225.037 29.776 223.965 30.496 222.749 30.496C221.917 30.496 221.101 30.144 220.301 29.44C218.989 28.32 218.333 26.256 218.333 23.248C218.333 21.232 218.557 19.264 219.005 17.344ZM261.459 34.144C261.619 34.432 261.363 34.88 260.691 35.488C260.019 36.096 259.187 36.64 258.195 37.12C257.235 37.632 256.467 37.888 255.891 37.888C255.603 37.888 255.379 37.792 255.219 37.6C254.323 36.352 253.475 35.088 252.675 33.808C251.907 32.496 251.459 31.728 251.331 31.504C250.403 29.904 249.571 28.56 248.835 27.472C248.707 27.28 248.531 27.136 248.307 27.04C248.115 26.944 247.907 26.928 247.683 26.992H247.635C247.379 27.056 247.171 27.184 247.011 27.376C246.851 27.568 246.787 27.792 246.819 28.048L247.011 30.64C247.235 33.104 247.331 35.168 247.299 36.832C247.267 37.28 246.803 37.664 245.907 37.984C245.011 38.304 244.115 38.464 243.219 38.464C242.099 38.464 241.539 38.208 241.539 37.696C240.995 32.256 240.499 26.56 240.051 20.608C239.603 14.624 239.379 10.064 239.379 6.928C239.379 4.56 239.523 3.312 239.811 3.184C240.355 2.864 241.283 2.576 242.595 2.32C243.939 2.064 245.379 1.936 246.915 1.936C249.219 1.936 251.283 2.272 253.107 2.944C254.963 3.616 256.275 4.72 257.043 6.256C258.419 8.752 259.107 11.232 259.107 13.696C259.107 15.648 258.755 17.344 258.051 18.784C257.347 20.224 256.467 21.648 255.411 23.056C255.155 23.376 254.947 23.664 254.787 23.92C254.659 24.144 254.611 24.304 254.643 24.4C254.547 24.272 255.219 25.2 256.659 27.184C258.195 29.104 259.795 31.424 261.459 34.144ZM253.059 14.032C253.059 12.336 252.499 10.992 251.379 10C250.291 9.008 248.595 8.288 246.291 7.84H246.195C246.067 7.84 245.939 7.888 245.811 7.984C245.715 8.08 245.667 8.208 245.667 8.368C245.699 10.224 245.827 12.32 246.051 14.656C246.243 17.472 246.355 19.552 246.387 20.896C246.387 21.248 246.579 21.424 246.963 21.424C248.083 21.296 249.107 20.864 250.035 20.128C250.963 19.392 251.699 18.48 252.243 17.392C252.787 16.304 253.059 15.184 253.059 14.032ZM283.401 6.304C284.937 7.872 286.089 9.776 286.857 12.016C287.625 14.224 288.009 16.528 288.009 18.928C288.009 19.728 287.961 20.512 287.865 21.28C287.481 24.736 286.617 27.6 285.273 29.872C283.929 32.144 281.849 33.888 279.033 35.104C276.217 36.32 272.489 36.928 267.849 36.928L266.121 36.88C265.865 36.88 265.593 35.808 265.305 33.664C265.049 31.52 264.825 28.832 264.633 25.6C264.473 22.336 264.393 19.12 264.393 15.952C264.393 11.792 264.553 8.352 264.873 5.632C265.225 2.912 265.785 1.44 266.553 1.216C267.129 1.024 268.105 0.927999 269.481 0.927999C270.441 0.927999 271.321 0.975999 272.121 1.072C274.393 1.232 276.425 1.728 278.217 2.56C280.041 3.392 281.769 4.64 283.401 6.304ZM271.449 7.36C271.257 9.408 271.161 11.776 271.161 14.464C271.161 16.064 271.209 17.92 271.305 20.032C271.433 22.112 271.561 24.288 271.689 26.56L271.977 30.832C274.633 30.16 276.905 28.88 278.793 26.992C280.681 25.104 281.673 22.864 281.769 20.272C281.865 17.264 281.177 14.512 279.705 12.016C278.233 9.52 275.481 7.968 271.449 7.36ZM299.614 8.416C299.262 8.64 299.086 8.96 299.086 9.376C299.086 10.016 299.486 10.8 300.286 11.728C301.118 12.624 302.366 13.872 304.03 15.472C306.622 17.936 308.638 20.08 310.078 21.904C311.55 23.696 312.318 25.456 312.382 27.184C312.446 29.392 311.934 31.344 310.846 33.04C309.79 34.736 308.382 36.048 306.622 36.976C304.862 37.904 303.006 38.368 301.054 38.368C299.39 38.368 297.854 38.016 296.446 37.312C295.934 37.056 295.134 36.464 294.046 35.536C292.99 34.608 292.03 33.632 291.166 32.608C290.334 31.552 289.918 30.688 289.918 30.016C289.918 29.696 289.998 29.456 290.158 29.296C292.078 27.12 293.71 26.016 295.054 25.984C295.278 25.952 295.502 26.048 295.726 26.272C295.982 26.464 296.35 26.8 296.83 27.28C297.534 27.984 297.998 28.4 298.222 28.528C299.566 29.648 300.862 30.208 302.109 30.208C302.845 30.208 303.454 30 303.934 29.584C304.446 29.168 304.75 28.608 304.846 27.904C304.942 26.528 304.462 25.264 303.406 24.112C302.35 22.928 301.39 22.016 300.526 21.376C299.662 20.736 299.15 20.352 298.99 20.224C297.198 18.784 295.902 17.696 295.102 16.96C294.302 16.224 293.582 15.376 292.942 14.416C292.302 13.424 291.886 12.336 291.694 11.152C291.598 10.512 291.55 9.92 291.55 9.376C291.55 7.68 291.966 6.272 292.798 5.152C293.63 4 294.606 3.152 295.726 2.608C296.878 2.032 297.966 1.696 298.99 1.6C299.182 1.568 299.47 1.552 299.854 1.552C301.198 1.552 302.526 1.856 303.838 2.464C305.15 3.072 306.51 4.096 307.918 5.536C308.11 5.728 308.206 5.968 308.206 6.256C308.206 6.768 307.934 7.376 307.39 8.08C306.878 8.752 306.286 9.328 305.614 9.808C304.942 10.256 304.414 10.464 304.03 10.432C303.806 10.4 303.486 10.112 303.07 9.568C302.654 9.088 302.27 8.704 301.918 8.416C301.566 8.128 301.182 7.984 300.766 7.984C300.382 7.984 299.998 8.128 299.614 8.416Z" fill="#1e293b"/>
</svg>
